<svg xmlns="http://www.w3.org/2000/svg" viewBox="0 0 120 120"><defs><style>.cls-1{fill:#505050;}</style></defs><g id="Layer_2" data-name="Layer 2"><g id="instagram"><path class="cls-1" d="M119.53,33.69a39.85,39.85,0,0,0-3-13.78A30.16,30.16,0,0,0,99.13,3.08,39,39,0,0,0,90,.81C87.37.46,84.73.33,82.09.24S77,.12,74.49.05a1,1,0,0,1-.24,0H45.74L44.38.06c-3.56.13-7.12.2-10.67.39A39.41,39.41,0,0,0,18.84,3.93,30.11,30.11,0,0,0,3,21.2,39.8,39.8,0,0,0,.74,30.52c-.32,2.59-.43,5.19-.52,7.8C.14,40.7.07,43.08.06,45.46Q0,57.57,0,69.67c0,2.51,0,5,.08,7.52.1,3.32.21,6.65.43,10a38.6,38.6,0,0,0,3.55,14.28,30.13,30.13,0,0,0,16.32,15.29,39.35,39.35,0,0,0,9.68,2.47c2.65.35,5.32.47,8,.56s5.42.17,8.13.18Q57,120,67.89,120c1.52,0,3,0,4.57,0,4.39-.12,8.79-.22,13.17-.39a44.79,44.79,0,0,0,8-1,32.82,32.82,0,0,0,12.85-5.64,30.63,30.63,0,0,0,10.88-15,38.24,38.24,0,0,0,1.88-8.5c.24-2.5.39-5,.5-7.52.12-2.7.14-5.41.21-8.11a.86.86,0,0,1,0-.23V46.43a1.47,1.47,0,0,1,0-.29C119.81,42,119.75,37.83,119.53,33.69ZM109.14,71.91c-.11,4.46-.2,8.91-.39,13.36A31.93,31.93,0,0,1,106.91,95a19.59,19.59,0,0,1-9.14,10.67,24.1,24.1,0,0,1-7.71,2.57,53.84,53.84,0,0,1-7.82.69c-2.8.08-5.61.19-8.41.21-5.6,0-11.2,0-16.8,0-3.43,0-6.87,0-10.3,0-4-.08-8-.19-12-.38A32.27,32.27,0,0,1,25.16,107a19.63,19.63,0,0,1-10.84-9.22,24.37,24.37,0,0,1-2.54-7.62,52.48,52.48,0,0,1-.7-7.91c-.1-3.71-.19-7.41-.23-11.11s0-7.42,0-11.13c0-4.09-.05-8.18,0-12.28.07-4.37.19-8.74.39-13.11a30.71,30.71,0,0,1,1.95-9.87A19.52,19.52,0,0,1,25,13.11a26.33,26.33,0,0,1,7.11-1.63c2.57-.22,5.14-.42,7.71-.46,5.94-.12,11.88-.15,17.82-.18,4,0,7.92,0,11.88,0,2.75,0,5.51,0,8.26.09s5.59.19,8.38.37a29,29,0,0,1,10.2,2.34,19.43,19.43,0,0,1,10.47,11.06,26.65,26.65,0,0,1,1.74,7.47c.22,2.47.34,5,.45,7.43q.14,3.33.15,6.67c0,7.12,0,14.24,0,21.36C109.17,69.05,109.18,70.48,109.14,71.91Z"/><path class="cls-1" d="M60,29.19a30.81,30.81,0,1,0,30.8,31.06A30.81,30.81,0,0,0,60,29.19ZM59.9,80A20,20,0,1,1,80,60.05,20,20,0,0,1,59.9,80Z"/><path class="cls-1" d="M92,20.75A7.21,7.21,0,1,0,99.22,28,7.23,7.23,0,0,0,92,20.75Z"/></g></g></svg>