<svg xmlns="http://www.w3.org/2000/svg" viewBox="0 0 120 114.55"><defs><style>.cls-1{fill:#505050;}</style></defs><g id="Layer_2" data-name="Layer 2"><g id="linkedin"><path class="cls-1" d="M118.72,58.73C116.22,47.28,109.92,39,98,36.41S75.52,36.37,68.06,47a5.87,5.87,0,0,1-.87.74V37.54H41.69v77H67.23v-3.07c0-13.87-.07-27.74,0-41.6a14.13,14.13,0,0,1,13-14.05c7.5-.45,12.31,3.79,13.62,12a12.5,12.5,0,0,1,.16,1.72q.14,20.67.25,41.35c0,1.14,0,2.29,0,3.6h25.53c.06-.76.14-1.33.14-1.9,0-14.2.08-28.39-.06-42.59A56.29,56.29,0,0,0,118.72,58.73Z"/><path class="cls-1" d="M19.61.77c-8-2.44-16.28,1.08-18.75,8-3.3,9.24,3.29,18,13.55,18C21.52,26.7,27,22.94,28.52,17A13.17,13.17,0,0,0,19.61.77Z"/><path class="cls-1" d="M1.72,114.55H27.08v-77H1.72Z"/></g></g></svg>