<svg xmlns="http://www.w3.org/2000/svg" viewBox="0 0 120 88.54"><defs><style>.cls-1{fill:#505050;}</style></defs><g id="Layer_2" data-name="Layer 2"><g id="mail"><path class="cls-1" d="M0,25.05c3.61,2.17,7.23,4.32,10.82,6.51Q33.28,45.24,55.69,58.94a7.58,7.58,0,0,0,8.57,0Q91.53,42.3,118.83,25.68L120,25v.92q0,22.32,0,44.64a17.53,17.53,0,0,1-14.59,17.64,23.27,23.27,0,0,1-4.09.32q-41.58,0-83.18,0A17.64,17.64,0,0,1,.21,73.39,2.57,2.57,0,0,0,0,72.87Z"/><path class="cls-1" d="M.56,13.88C1.76,7.07,8.31,1,15.23.22A33.8,33.8,0,0,1,18.85,0h82.94a17.86,17.86,0,0,1,17.4,12.61,1.39,1.39,0,0,1-.75,1.92Q89.75,32,61.11,49.57a1.79,1.79,0,0,1-2.18,0Q30.3,32.05,1.61,14.55Z"/></g></g></svg>