<svg xmlns="http://www.w3.org/2000/svg" viewBox="0 0 120 83.98"><defs><style>.cls-1{fill:#505050;}</style></defs><g id="Layer_2" data-name="Layer 2"><g id="youtube"><path class="cls-1" d="M60,84c-9.31-.25-18.78-.41-28.24-.8-5.26-.22-10.5-.74-15.74-1.3A15.18,15.18,0,0,1,3.56,73.63a21.93,21.93,0,0,1-2-7.39A181.51,181.51,0,0,1,.09,35.77,145,145,0,0,1,1.55,17.39c.48-3.13,1.09-6.23,3-8.9A15.6,15.6,0,0,1,15.63,1.84,154.7,154.7,0,0,1,33.22.5C44.45.26,55.67,0,66.9,0c7,0,13.95.28,20.91.56A142.81,142.81,0,0,1,104.58,2c6.08,1,10.52,4.11,12.55,10a39.6,39.6,0,0,1,1.6,7.67,175.43,175.43,0,0,1,1.2,26.92,145.18,145.18,0,0,1-1.62,20.3c-.49,3-1.1,5.93-2.89,8.47a15.42,15.42,0,0,1-11.08,6.54A167,167,0,0,1,86.9,83.26C78,83.54,69.05,83.74,60,84ZM48,23.89v36L79.3,41.92Z"/></g></g></svg>